<?xml version="1.0" encoding="UTF-8"?>
<!-- Creator: CorelDRAW 2019 (64 Bit Versão de avaliação) -->
<svg xmlns="http://www.w3.org/2000/svg" xmlns:xlink="http://www.w3.org/1999/xlink" xml:space="preserve" width="140mm" height="71.4319mm" version="1.1" style="shape-rendering:geometricPrecision; text-rendering:geometricPrecision; image-rendering:optimizeQuality; fill-rule:evenodd; clip-rule:evenodd" viewBox="0 0 30396.67 15509.23">
 <defs>
  <style type="text/css">
   <![CDATA[
    .fil1 {fill:#4A555C;fill-rule:nonzero}
    .fil0 {fill:#B20000;fill-rule:nonzero}
   ]]>
  </style>
 </defs>
 <g id="Camada_x0020_1">
  <metadata id="CorelCorpID_0Corel-Layer"></metadata>
  <path class="fil0" d="M4789.98 15457.41l-620.63 0 -237.74 -702.37 -1103.59 0 -231.63 702.37 -620.63 0 1087.89 -2938.2 656.76 0 1069.57 2938.2zm-1000.05 -1153.31l-359.09 -1064.19c-14.96,-42.24 -29.91,-123.98 -46.24,-243.22l-13.69 0c-10.85,89.32 -27.18,168.96 -49.72,239.11l-361.72 1068.3 830.46 0z"></path>
  <polygon id="1" class="fil0" points="5109.46,15457.41 5109.46,12353.62 5664.04,12353.62 5664.04,15457.41 "></polygon>
  <path id="2" class="fil0" d="M6795.65 15195.76l0 261.65 -556.59 0 0 -3103.78 556.59 0 0 1337.33 6.11 0c162.22,-254.17 393.74,-380.89 694.26,-380.89 266.29,0 474.74,92.69 624.63,279.35 150.63,186.02 226.26,439.46 226.26,760.3 0,350.13 -86.58,630.85 -258.91,842.04 -172.33,211.83 -401.22,317.48 -687.41,317.48 -262.28,0 -461.89,-104.28 -598.83,-313.48l-6.11 0zm-8.22 -634.22c0,144.41 44.98,266.39 134.3,365.19 89.22,98.07 200.87,147.15 335.17,147.15 162.11,0 289.46,-62.67 380.78,-189.39 91.96,-126.09 138.3,-303.89 138.3,-532.78 0,-190.02 -42.24,-339.28 -126.09,-446.83 -83.74,-108.39 -202.35,-162.22 -354.87,-162.22 -147.89,0 -269.13,54.56 -364.46,164.22 -95.43,109.02 -143.15,247.96 -143.15,416.91l0 237.74z"></path>
  <path id="3" class="fil0" d="M10625.61 14565.01l-1400.63 0c22.44,356.98 224.78,535.41 606.31,535.41 233,0 440.72,-61.3 622.63,-183.91l0 423.02c-194.13,113.13 -443.46,169.69 -747.98,169.69 -326.33,0 -579.76,-94.7 -761.67,-283.45 -181.18,-188.65 -272.5,-453.04 -272.5,-792.33 0,-332.44 97.43,-602.83 292.3,-811.29 195.5,-208.56 439.35,-312.11 731.65,-312.11 292.94,0 521.09,89.32 684.67,269.13 163.48,179.91 245.22,426.5 245.22,740.5l0 245.32zm-524.57 -365.19c0,-332.44 -136.93,-498.65 -411.44,-498.65 -114.5,0 -214.67,44.98 -301.78,135.57 -87.22,90.59 -141.78,211.83 -162.85,363.09l876.07 0z"></path>
  <path id="4" class="fil0" d="M12334.14 13872.86c-72.89,-44.35 -162.85,-66.15 -269.02,-66.15 -139.67,0 -251.43,57.3 -335.17,171.06 -83.85,113.76 -126.09,266.29 -126.09,457.78l0 1021.85 -556.59 0 0 -2097.52 556.59 0 0 403.22 6.11 0c102.17,-292.94 286.83,-439.35 552.48,-439.35 76.37,0 133.56,9.48 171.7,27.91l0 521.19z"></path>
  <path id="5" class="fil0" d="M13960.92 15435.6c-93.96,47.72 -226.15,71.52 -395.11,71.52 -429.87,0 -644.44,-227.52 -644.44,-682.57l0 -1041.65 -347.39 0 0 -423.02 347.39 0 0 -469.48 554.48 -161.37 0 630.85 485.07 0 0 423.02 -485.07 0 0 944.22c0,231.63 91.32,346.76 273.87,346.76 75.63,0 145.78,-21.17 211.2,-63.41l0 425.13z"></path>
  <polygon id="6" class="fil0" points="17547.77,15457.41 15847.36,15457.41 15847.36,12519.21 17481.62,12519.21 17481.62,12992.69 16416.16,12992.69 16416.16,13740.67 17405.99,13740.67 17405.99,14212.04 16416.16,14212.04 16416.16,14986.67 17547.77,14986.67 "></polygon>
  <path id="7" class="fil0" d="M17938.77 12669.1c0,-85.22 29.91,-156.11 90.59,-213.3 60.57,-57.2 138.94,-85.85 234.37,-85.85 93.33,0 170.96,27.91 233.63,84.48 62.67,56.56 93.96,128.09 93.96,214.67 0,86.48 -31.28,158.63 -93.33,215.94 -61.3,57.2 -139.57,85.85 -234.26,85.85 -94.7,0 -172.43,-29.28 -233.74,-87.95 -61.3,-58.57 -91.22,-130.09 -91.22,-213.83zm43.5 2788.31l0 -2097.52 554.59 0 0 2097.52 -554.59 0z"></path>
  <path id="8" class="fil0" d="M21053.4 15457.41l-554.48 0 0 -1175.85c0,-358.98 -130.09,-538.89 -389,-538.89 -130.83,0 -237.11,49.09 -318.85,147.15 -81.74,97.43 -122.61,221.41 -122.61,372.04l0 1195.55 -556.59 0 0 -2097.52 556.59 0 0 337.18 6.11 0c154,-258.17 380.89,-387 680.57,-387 466,0 698.26,287.56 698.26,863.85l0 1283.5z"></path>
  <path id="9" class="fil0" d="M21528.25 14918.52c207.82,130.09 412.81,195.5 615.15,195.5 260.28,0 391,-73.52 391,-221.41 0,-102.81 -103.54,-188.65 -309.26,-259.54 -301.05,-100.81 -491.81,-200.24 -572.91,-298.31 -81.11,-98.17 -121.98,-223.52 -121.98,-376.15 0,-202.24 82.48,-360.98 247.33,-476.11 165.59,-115.13 377.41,-172.43 636.96,-172.43 181.28,0 361.72,28.65 543,85.85l0 453.04c-163.48,-97.43 -342.65,-145.78 -536.89,-145.78 -102.81,0 -185.28,19.07 -247.96,57.93 -61.94,38.13 -93.33,89.96 -93.33,153.26 0,105.65 87.22,188.76 261.65,250.06 198.24,71.52 343.28,131.46 436.61,180.54 93.33,48.35 165.59,114.39 218.04,198.24 51.72,83.74 77.63,182.54 77.63,295.67 0,212.46 -85.11,377.41 -254.8,494.55 -169.59,117.13 -393,175.8 -671.72,175.8 -233.63,0 -440.09,-37.5 -618.52,-111.76l0 -478.96z"></path>
  <path id="10" class="fil0" d="M24665.32 15435.6c-93.96,47.72 -226.15,71.52 -395.11,71.52 -429.87,0 -644.44,-227.52 -644.44,-682.57l0 -1041.65 -347.39 0 0 -423.02 347.39 0 0 -469.48 554.48 -161.37 0 630.85 485.07 0 0 423.02 -485.07 0 0 944.22c0,231.63 91.32,346.76 273.87,346.76 75.63,0 145.78,-21.17 211.2,-63.41l0 425.13z"></path>
  <path id="11" class="fil0" d="M26865.13 14565.01l-1400.63 0c22.44,356.98 224.78,535.41 606.31,535.41 233,0 440.72,-61.3 622.63,-183.91l0 423.02c-194.13,113.13 -443.46,169.69 -747.98,169.69 -326.33,0 -579.76,-94.7 -761.67,-283.45 -181.18,-188.65 -272.5,-453.04 -272.5,-792.33 0,-332.44 97.43,-602.83 292.3,-811.29 195.5,-208.56 439.35,-312.11 731.65,-312.11 292.94,0 521.09,89.32 684.67,269.13 163.48,179.91 245.22,426.5 245.22,740.5l0 245.32zm-524.57 -365.19c0,-332.44 -136.93,-498.65 -411.44,-498.65 -114.5,0 -214.67,44.98 -301.78,135.57 -87.22,90.59 -141.78,211.83 -162.85,363.09l876.07 0z"></path>
  <path id="12" class="fil0" d="M27235.06 12669.1c0,-85.22 29.91,-156.11 90.59,-213.3 60.57,-57.2 138.94,-85.85 234.37,-85.85 93.33,0 170.96,27.91 233.63,84.48 62.67,56.56 93.96,128.09 93.96,214.67 0,86.48 -31.28,158.63 -93.33,215.94 -61.3,57.2 -139.57,85.85 -234.26,85.85 -94.7,0 -172.43,-29.28 -233.74,-87.95 -61.3,-58.57 -91.22,-130.09 -91.22,-213.83zm43.5 2788.31l0 -2097.52 554.59 0 0 2097.52 -554.59 0z"></path>
  <path id="13" class="fil0" d="M30349.7 15457.41l-554.48 0 0 -1175.85c0,-358.98 -130.09,-538.89 -389,-538.89 -130.83,0 -237.11,49.09 -318.85,147.15 -81.74,97.43 -122.61,221.41 -122.61,372.04l0 1195.55 -556.59 0 0 -2097.52 556.59 0 0 337.18 6.11 0c154,-258.17 380.89,-387 680.57,-387 466,0 698.26,287.56 698.26,863.85l0 1283.5z"></path>
  <polygon class="fil1" points="7565.65,11058.75 7565.65,8977.76 2348.43,8977.76 2348.43,6495.55 6985.99,6495.55 6985.99,4444.38 2348.43,4444.38 2348.43,2066.13 7535.94,2066.13 7535.94,0 -0,0 -0,11058.75 "></polygon>
  <path id="1" class="fil1" d="M13942.28 11058.75l0 -1783.63 -980.98 0c-386.47,0 -671.4,-81.74 -854.68,-245.32 -183.28,-163.48 -274.92,-433.45 -274.92,-810.02l0 -3255.26 2080.88 0 0 -1768.78 -2080.88 0 0 -2110.59 -2170.21 0 0 2110.59 -1129.61 0 0 1768.78 1129.61 0 0 3374.18c0,891.76 275.03,1568.11 824.98,2028.85 549.95,460.84 1305.52,691.2 2266.69,691.2l1189.12 0z"></path>
  <path id="2" class="fil1" d="M22117.49 8457.62l-2021.47 0c0,713.43 -495.49,1070.2 -1486.37,1070.2 -475.69,0 -854.68,-118.92 -1137.09,-356.77 -282.51,-237.85 -423.66,-594.61 -423.66,-1070.2l0 -341.92 5083.44 0 0 -1412.01c0,-1040.49 -322.11,-1843.14 -966.13,-2407.95 -644.12,-564.8 -1501.33,-847.2 -2571.53,-847.2 -1060.3,0 -1914.87,287.35 -2563.95,862.06 -649.07,574.7 -973.61,1357.55 -973.61,2348.43l0 1843.14c0,961.18 324.54,1711.9 973.61,2251.94 649.07,540.05 1503.65,810.02 2563.95,810.02 1070.2,0 1924.88,-237.85 2564.05,-713.43 639.17,-475.69 958.75,-1124.76 958.75,-1947.21l0 -89.11zm-1976.92 -1976.92l-3091.67 0 0 -178.44c0,-495.39 136.2,-874.49 408.7,-1137.09 272.5,-262.49 656.55,-393.85 1152.04,-393.85 485.49,0 862.06,128.82 1129.61,386.47 267.55,257.65 401.32,634.22 401.32,1129.61l0 193.29z"></path>
  <path id="3" class="fil1" d="M30396.67 7981.93l-2021.47 0c0,951.28 -480.64,1426.97 -1441.82,1426.97 -951.28,0 -1426.97,-500.44 -1426.97,-1501.33l0 -1530.93c0,-1000.78 475.69,-1501.23 1426.97,-1501.23 961.18,0 1441.82,480.54 1441.82,1441.82l2021.47 0 0 -133.77c0,-1000.89 -309.68,-1766.35 -929.05,-2296.5 -619.26,-530.15 -1464.04,-795.17 -2534.24,-795.17 -1060.3,0 -1902.55,274.92 -2526.87,824.87 -624.32,549.95 -936.42,1310.47 -936.42,2281.65l0 1902.55c0,971.08 312.11,1731.59 936.42,2281.54 624.32,550.06 1466.57,824.98 2526.87,824.98 1070.2,0 1914.98,-265.02 2534.24,-795.17 619.37,-530.15 929.05,-1295.72 929.05,-2296.5l0 -133.77z"></path>
 </g>
</svg>
